<?xml version="1.0" standalone="no"?>
<!DOCTYPE svg PUBLIC "-//W3C//DTD SVG 20010904//EN"
 "http://www.w3.org/TR/2001/REC-SVG-20010904/DTD/svg10.dtd">
<svg version="1.0" xmlns="http://www.w3.org/2000/svg"
 width="512.000000pt" height="512.000000pt" viewBox="0 0 512.000000 512.000000"
 preserveAspectRatio="xMidYMid meet">

<g transform="translate(0.000000,512.000000) scale(0.100000,-0.100000)"
fill="#000000" stroke="none">
<path d="M2330 5113 c-523 -50 -935 -205 -1330 -502 -531 -398 -873 -979 -977
-1658 -23 -152 -23 -470 1 -621 57 -365 179 -688 373 -984 88 -135 169 -235
294 -363 l108 -110 3 -340 c3 -374 3 -375 68 -449 64 -72 162 -101 253 -73 26
9 164 88 305 176 l257 160 95 -29 c372 -118 858 -150 1245 -84 930 158 1694
824 1979 1723 75 236 110 462 110 701 0 613 -250 1220 -694 1683 -423 442
-979 710 -1590 766 -105 10 -415 13 -500 4z m480 -304 c927 -84 1706 -749
1940 -1654 122 -472 69 -949 -155 -1410 -188 -388 -496 -720 -873 -942 -555
-327 -1252 -392 -1914 -178 -59 19 -118 35 -130 35 -52 0 -104 -27 -333 -169
l-240 -149 -5 322 c-5 296 -7 324 -24 351 -11 17 -72 82 -136 145 -292 288
-474 605 -575 1000 -80 313 -83 610 -9 938 147 655 598 1217 1212 1509 213
102 493 180 722 201 136 13 386 14 520 1z"/>
<path d="M2155 3486 c-74 -36 -1317 -1283 -1335 -1340 -53 -165 62 -335 226
-336 28 0 69 6 90 14 22 7 250 129 509 271 259 141 473 257 476 258 4 1 136
-108 294 -243 158 -135 304 -256 326 -269 26 -15 61 -25 102 -28 120 -10 91
-34 804 680 697 699 668 664 665 780 -3 142 -119 245 -264 235 -65 -5 -78 -12
-561 -275 l-494 -270 -289 249 c-159 136 -311 259 -338 273 -66 33 -142 34
-211 1z m415 -556 c327 -280 336 -286 436 -278 43 4 99 31 360 173 170 92 334
182 364 198 47 26 -12 -37 -405 -432 -253 -253 -463 -461 -466 -461 -3 0 -140
115 -305 257 -164 141 -315 263 -334 271 -22 9 -56 13 -95 10 -57 -3 -82 -16
-410 -193 -192 -105 -354 -192 -359 -194 -6 -2 194 202 444 453 250 251 458
456 461 456 3 0 142 -117 309 -260z"/>
</g>
</svg>
